<svg width="57" height="57" viewBox="0 0 57 57" fill="none" xmlns="http://www.w3.org/2000/svg">
<path opacity="0.16" d="M49.0353 43.6821C51.3384 41.085 52.7143 37.7818 52.7143 34.1876C52.7143 25.8204 45.2532 19.0352 36.0466 19.0352C26.84 19.0352 19.3789 25.8204 19.3789 34.1876C19.3789 42.5548 26.84 49.34 36.0466 49.34C38.3284 49.3419 40.5901 48.9142 42.7137 48.0794L51.199 51.6129L49.0353 43.6821Z" fill="#0088CC"/>
<path fill-rule="evenodd" clip-rule="evenodd" d="M20.8937 3.88281C10.6415 3.88281 1.95312 11.4863 1.95312 21.3081C1.96171 24.9411 3.17454 28.4688 5.40182 31.339L3.54716 38.1364C3.06228 39.9244 4.90482 41.5457 6.61402 40.8336L15.0994 37.297C15.656 37.0651 16.0976 36.6216 16.3272 36.0641C16.5569 35.5066 16.5556 34.8807 16.3237 34.3241C16.0918 33.7675 15.6483 33.3258 15.0908 33.0962C14.5333 32.8666 13.9074 32.8679 13.3508 33.0997L9.15659 34.8483L10.096 31.4027C10.1956 31.0385 10.2028 30.6552 10.1171 30.2874C10.0314 29.9197 9.85545 29.5791 9.60511 29.2965C7.64135 27.0812 6.49886 24.3083 6.49886 21.3081C6.49886 14.3925 12.7356 8.42854 20.8937 8.42854C27.1971 8.42854 32.3823 12.0136 34.3915 16.8291C24.8757 17.5958 17.1056 24.8992 17.1056 34.1877C17.1056 44.0095 25.794 51.613 36.0461 51.613C38.3675 51.613 40.6009 51.2281 42.6647 50.522L50.3258 53.7101C52.035 54.4253 53.8775 52.8009 53.3926 51.013L51.538 44.2186C53.7652 41.3484 54.9781 37.8207 54.9867 34.1877C54.9867 25.4084 48.0468 18.4049 39.2554 17.0139C37.1522 9.34678 29.6063 3.88281 20.8937 3.88281ZM21.6513 34.1877C21.6513 27.2752 27.888 21.3081 36.0461 21.3081C44.2042 21.3081 50.4409 27.2752 50.4409 34.1877C50.4409 37.1848 49.2984 39.9608 47.3347 42.1761C47.0843 42.4587 46.9084 42.7993 46.8227 43.167C46.7369 43.5347 46.7442 43.918 46.8437 44.2822L47.7832 47.7279L43.589 45.9793C43.0417 45.7522 42.4273 45.7479 41.8768 45.9672C40.0204 46.6998 38.0418 47.0731 36.0461 47.0673C27.888 47.0673 21.6513 41.1033 21.6513 34.1877Z" fill="#0088CC"/>
</svg>
