<svg width="57" height="57" viewBox="0 0 57 57" fill="none" xmlns="http://www.w3.org/2000/svg">
<path d="M22.4374 9.00021C22.8518 9.00021 23.2492 9.16482 23.5422 9.45785C23.8353 9.75087 23.9999 10.1483 23.9999 10.5627C23.9999 10.9771 23.8353 11.3745 23.5422 11.6675C23.2492 11.9606 22.8518 12.1252 22.4374 12.1252H13.0624C11.4877 12.1252 9.97751 12.7507 8.86402 13.8642C7.75053 14.9777 7.12498 16.4879 7.12498 18.0627V44.9375C7.12498 45.7173 7.27856 46.4893 7.57694 47.2097C7.87533 47.9301 8.31268 48.5846 8.86402 49.136C9.41537 49.6873 10.0699 50.1247 10.7903 50.423C11.5106 50.7214 12.2827 50.875 13.0624 50.875H39.9373C40.717 50.875 41.4891 50.7214 42.2094 50.423C42.9298 50.1247 43.5843 49.6873 44.1357 49.136C44.687 48.5846 45.1244 47.9301 45.4228 47.2097C45.7212 46.4893 45.8747 45.7173 45.8747 44.9375V36.8126C45.8747 36.3982 46.0393 36.0008 46.3324 35.7077C46.6254 35.4147 47.0228 35.2501 47.4372 35.2501C47.8516 35.2501 48.249 35.4147 48.5421 35.7077C48.8351 36.0008 48.9997 36.3982 48.9997 36.8126V44.9375C48.9997 47.3411 48.0449 49.6461 46.3454 51.3457C44.6459 53.0452 42.3408 54 39.9373 54H13.0624C10.6589 54 8.35387 53.0452 6.65433 51.3457C4.95479 49.6461 4 47.3411 4 44.9375V18.0627C4 15.6592 4.95479 13.3541 6.65433 11.6545C8.35387 9.955 10.6589 9.00021 13.0624 9.00021H22.4374ZM33.6548 4.14523C33.925 4.01982 34.2254 3.97426 34.5206 4.0139C34.8158 4.05354 35.0935 4.17674 35.321 4.36898L53.4459 19.6814C53.6157 19.8248 53.7529 20.0028 53.8484 20.2034C53.9439 20.4041 53.9955 20.6228 53.9997 20.845C54.004 21.0671 53.9608 21.2877 53.8731 21.4918C53.7853 21.696 53.655 21.8791 53.4909 22.0289L35.366 38.5913C35.1423 38.7957 34.864 38.9306 34.5649 38.9796C34.2659 39.0286 33.9591 38.9895 33.6818 38.8673C33.4046 38.745 33.1689 38.5448 33.0034 38.2909C32.8379 38.0371 32.7498 37.7406 32.7498 37.4376V30.2851C30.1811 30.4076 27.7223 30.8726 25.2024 32.1189C22.3524 33.5263 19.3087 35.9876 15.9299 40.3001L15.2499 41.1876C15.0584 41.4427 14.7935 41.6331 14.4906 41.7332C14.1877 41.8334 13.8614 41.8384 13.5556 41.7476C13.2498 41.6568 12.9791 41.4746 12.7798 41.2254C12.5806 40.9763 12.4625 40.6721 12.4412 40.3538C12.1087 35.3638 13.4262 28.5539 16.8462 22.9514C20.0799 17.6539 25.2711 13.3352 32.7498 12.8052V5.56272C32.7498 4.95397 33.1023 4.40148 33.6548 4.14523ZM35.8748 14.3127C35.8748 14.7271 35.7102 15.1245 35.4172 15.4175C35.1241 15.7106 34.7267 15.8752 34.3123 15.8752C27.3274 15.8752 22.5461 19.6139 19.5149 24.5801C17.3887 28.0651 16.1674 32.0976 15.7174 35.7051C18.4849 32.6626 21.1549 30.6339 23.8174 29.3176C27.4298 27.5314 30.8986 27.1251 34.3123 27.1251C34.7267 27.1251 35.1241 27.2897 35.4172 27.5828C35.7102 27.8758 35.8748 28.2732 35.8748 28.6876V33.8913L50.0685 20.9202L35.8748 8.92771V14.3127Z" fill="#0088CC"/>
<path d="M35.8748 14.3127C35.8748 14.7271 35.7102 15.1245 35.4172 15.4175C35.1241 15.7106 34.7267 15.8752 34.3123 15.8752C27.3274 15.8752 22.5461 19.6139 19.5149 24.5801C17.3887 28.0651 16.1674 32.0976 15.7174 35.7051C18.4849 32.6626 21.1549 30.6339 23.8174 29.3176C27.4298 27.5314 30.8986 27.1251 34.3123 27.1251C34.7267 27.1251 35.1241 27.2897 35.4172 27.5828C35.7102 27.8758 35.8748 28.2732 35.8748 28.6876V33.8913L50.0685 20.9202L35.8748 8.92771V14.3127Z" fill="#0088CC" fill-opacity="0.16"/>
<path d="M22.4374 9.00021C22.8518 9.00021 23.2492 9.16482 23.5422 9.45785C23.8353 9.75087 23.9999 10.1483 23.9999 10.5627C23.9999 10.9771 23.8353 11.3745 23.5422 11.6675C23.2492 11.9606 22.8518 12.1252 22.4374 12.1252H13.0624C11.4877 12.1252 9.97751 12.7507 8.86402 13.8642C7.75053 14.9777 7.12498 16.4879 7.12498 18.0627V44.9375C7.12498 45.7173 7.27856 46.4893 7.57694 47.2097C7.87533 47.9301 8.31268 48.5846 8.86402 49.136C9.41537 49.6873 10.0699 50.1247 10.7903 50.423C11.5106 50.7214 12.2827 50.875 13.0624 50.875H39.9373C40.717 50.875 41.4891 50.7214 42.2094 50.423C42.9298 50.1247 43.5843 49.6873 44.1357 49.136C44.687 48.5846 45.1244 47.9301 45.4228 47.2097C45.7212 46.4893 45.8747 45.7173 45.8747 44.9375V36.8126C45.8747 36.3982 46.0393 36.0008 46.3324 35.7077C46.6254 35.4147 47.0228 35.2501 47.4372 35.2501C47.8516 35.2501 48.249 35.4147 48.5421 35.7077C48.8351 36.0008 48.9997 36.3982 48.9997 36.8126V44.9375C48.9997 47.3411 48.0449 49.6461 46.3454 51.3457C44.6459 53.0452 42.3408 54 39.9373 54H13.0624C10.6589 54 8.35387 53.0452 6.65433 51.3457C4.95479 49.6461 4 47.3411 4 44.9375V18.0627C4 15.6592 4.95479 13.3541 6.65433 11.6545C8.35387 9.955 10.6589 9.00021 13.0624 9.00021H22.4374ZM33.6548 4.14523C33.925 4.01982 34.2254 3.97426 34.5206 4.0139C34.8158 4.05354 35.0935 4.17674 35.321 4.36898L53.4459 19.6814C53.6157 19.8248 53.7529 20.0028 53.8484 20.2034C53.9439 20.4041 53.9955 20.6228 53.9997 20.845C54.004 21.0671 53.9608 21.2877 53.8731 21.4918C53.7853 21.696 53.655 21.8791 53.4909 22.0289L35.366 38.5913C35.1423 38.7957 34.864 38.9306 34.5649 38.9796C34.2659 39.0286 33.9591 38.9895 33.6818 38.8673C33.4046 38.745 33.1689 38.5448 33.0034 38.2909C32.8379 38.0371 32.7498 37.7406 32.7498 37.4376V30.2851C30.1811 30.4076 27.7223 30.8726 25.2024 32.1189C22.3524 33.5263 19.3087 35.9876 15.9299 40.3001L15.2499 41.1876C15.0584 41.4427 14.7935 41.6331 14.4906 41.7332C14.1877 41.8334 13.8614 41.8384 13.5556 41.7476C13.2498 41.6568 12.9791 41.4746 12.7798 41.2254C12.5806 40.9763 12.4625 40.6721 12.4412 40.3538C12.1087 35.3638 13.4262 28.5539 16.8462 22.9514C20.0799 17.6539 25.2711 13.3352 32.7498 12.8052V5.56272C32.7498 4.95397 33.1023 4.40148 33.6548 4.14523ZM35.8748 14.3127C35.8748 14.7271 35.7102 15.1245 35.4172 15.4175C35.1241 15.7106 34.7267 15.8752 34.3123 15.8752C27.3274 15.8752 22.5461 19.6139 19.5149 24.5801C17.3887 28.0651 16.1674 32.0976 15.7174 35.7051C18.4849 32.6626 21.1549 30.6339 23.8174 29.3176C27.4298 27.5314 30.8986 27.1251 34.3123 27.1251C34.7267 27.1251 35.1241 27.2897 35.4172 27.5828C35.7102 27.8758 35.8748 28.2732 35.8748 28.6876V33.8913L50.0685 20.9202L35.8748 8.92771V14.3127Z" stroke="#0088CC" stroke-width="1.25"/>
<path d="M35.8748 14.3127C35.8748 14.7271 35.7102 15.1245 35.4172 15.4175C35.1241 15.7106 34.7267 15.8752 34.3123 15.8752C27.3274 15.8752 22.5461 19.6139 19.5149 24.5801C17.3887 28.0651 16.1674 32.0976 15.7174 35.7051C18.4849 32.6626 21.1549 30.6339 23.8174 29.3176C27.4298 27.5314 30.8986 27.1251 34.3123 27.1251C34.7267 27.1251 35.1241 27.2897 35.4172 27.5828C35.7102 27.8758 35.8748 28.2732 35.8748 28.6876V33.8913L50.0685 20.9202L35.8748 8.92771V14.3127Z" stroke="#0088CC" stroke-width="1.25"/>
</svg>
